<svg width="213" height="213" viewBox="0 0 213 213" fill="none" xmlns="http://www.w3.org/2000/svg">
<rect width="212.271" height="212.271" rx="52" fill="#1A1511"/>
<path d="M182.97 94.501C157.242 109.375 145.173 116.663 138.361 124.03C135.741 126.864 133.785 129.839 132.374 134.34H174.52V168.188H94.9697L95.9941 150.296C97.1349 130.365 100.687 114.955 113.559 101.034C124.703 88.9819 142.413 78.865 166.069 65.1885L182.97 94.501ZM116.97 31.1885C116.97 48.9093 116.986 63.309 115.947 74.917C114.888 86.754 112.627 97.3382 107.095 107.03C101.551 116.742 93.6187 123.99 84.0361 130.777C74.6637 137.416 62.4041 144.491 47.4033 153.188L30.5449 123.864C46.1128 114.838 56.78 108.647 64.6025 103.106C64.7862 102.976 64.9675 102.846 65.1465 102.718L28.9697 81.7422L45.8281 52.418L82.209 73.5117C82.2636 72.9846 82.3164 72.4425 82.3662 71.8857C83.2379 62.1455 83.2539 49.5283 83.2539 31.1885H116.97Z" fill="#F8C863"/>
</svg>
