<svg width="213" height="213" viewBox="0 0 213 213" fill="none" xmlns="http://www.w3.org/2000/svg">
<rect width="212.271" height="212.271" rx="52" fill="#1A1511"/>
<path d="M188.97 91.501C163.242 106.375 151.173 113.663 144.361 121.03C141.741 123.864 139.785 126.839 138.374 131.34H180.52V165.188H100.97L101.994 147.296C103.135 127.365 106.687 111.955 119.559 98.0342C130.703 85.9818 148.413 75.8651 172.069 62.1885L188.97 91.501ZM112 43C112 60.7211 112.016 75.1213 110.978 86.7295C109.918 98.5663 107.657 109.15 102.125 118.842C96.5813 128.554 88.6482 135.801 79.0654 142.589C69.693 149.228 57.4333 156.302 42.4326 165L25.5742 135.676C41.1419 126.649 51.8093 120.46 59.6318 114.919C59.8155 114.789 59.9968 114.659 60.1758 114.53L24 93.5537L40.8584 64.2305L77.2383 85.3242C77.2929 84.7971 77.3457 84.255 77.3955 83.6982C78.2672 73.9578 78.2832 61.3404 78.2832 43H112Z" fill="#F8C863"/>
<path d="M186 32C186 27.5817 182.418 24 178 24C173.582 24 170 27.5817 170 32C170 36.4183 173.582 40 178 40V43C171.925 43 167 38.0751 167 32C167 25.9249 171.925 21 178 21C184.075 21 189 25.9249 189 32C189 38.0751 184.075 43 178 43V40C182.418 40 186 36.4183 186 32Z" fill="#F8C863"/>
<path fill-rule="evenodd" clip-rule="evenodd" d="M178.306 27.4805C179.218 27.4805 180.016 27.7167 180.639 28.2471C181.276 28.7905 181.582 29.5306 181.582 30.3965C181.582 31.2656 181.269 32.0031 180.614 32.5312L180.613 32.5322C180.459 32.6564 180.293 32.7629 180.118 32.8535L182.571 36.5996H179.998L179.82 36.3301L177.836 33.3115H176.866V36.5996H174.706V27.4805H178.306ZM176.866 31.2119H178.294C178.798 31.2119 179.049 31.1061 179.164 31.0078C179.275 30.9121 179.374 30.7449 179.374 30.3965C179.374 30.0459 179.275 29.8877 179.171 29.8018L179.157 29.79C179.042 29.6886 178.795 29.5801 178.294 29.5801H176.866V31.2119Z" fill="#F8C863"/>
</svg>
